<svg width="auto" height="100%" viewBox="0 0 203.88100 31.32480" id="svg846" class="ghost-svg">
  <g id="g2599" transform="translate(1297.7077,-1688.769)">
    <path d="m -1297.7077,1697.9162 h 8.2265 q -0.04,0.5205 -0.06,1.161 -0.02,0.6205 -0.02,1.321 0,0.6805 0,1.3811 0,0.7005 0,1.3411 0.4003,-0.9808 1.0408,-2.0016 0.6405,-1.0408 1.5012,-1.8615 0.8807,-0.8206 1.9816,-1.3411 1.1209,-0.5404 2.502,-0.5404 0.2602,0 0.5604,0.04 0.3202,0.02 0.6205,0.08 0.3002,0.06 0.5604,0.1601 0.2803,0.08 0.4604,0.2002 l -0.7006,8.2465 q -0.9007,-0.3403 -1.9015,-0.5004 -1.0008,-0.1801 -1.7413,-0.1801 -1.0208,0 -1.8015,0.2602 -0.7606,0.2402 -1.301,0.6405 -0.5404,0.4003 -0.8607,0.8807 -0.3002,0.4804 -0.4203,0.9407 v 11.369 h -8.6468 z" id="path2563"></path>
    <path d="m -1256.6353,1718.6526 q -1.8815,0.6205 -4.0632,1.0208 -2.1817,0.4204 -4.5436,0.4204 -2.582,0 -4.9239,-0.6806 -2.3418,-0.6805 -4.1232,-2.1216 -1.7814,-1.4412 -2.8423,-3.6429 -1.0408,-2.2218 -1.0408,-5.2842 0,-1.7414 0.5404,-3.2225 0.5405,-1.5012 1.4612,-2.7222 0.9407,-1.221 2.1817,-2.1617 1.261,-0.9408 2.6821,-1.5813 1.4412,-0.6405 2.9624,-0.9607 1.5212,-0.3403 2.9823,-0.3403 2.3018,0 4.0632,0.5204 1.7614,0.5004 2.9223,1.3611 1.181,0.8607 1.7814,2.0016 0.6005,1.1409 0.6005,2.4219 0,1.5612 -0.5404,2.6621 -0.5204,1.1009 -1.4211,1.8615 -0.8807,0.7406 -2.0617,1.1809 -1.1609,0.4203 -2.4619,0.6605 -1.301,0.2202 -2.6621,0.2802 -1.3411,0.06 -2.562,0.06 -0.4204,0 -0.8207,0 -0.3803,-0.02 -0.7606,-0.02 0.1601,1.1409 0.6205,1.9215 0.4804,0.7806 1.1809,1.281 0.7206,0.4804 1.6413,0.7006 0.9408,0.2001 2.0016,0.2001 0.8007,0 1.7014,-0.1201 0.9207,-0.1201 1.8414,-0.3202 0.9408,-0.2202 1.8615,-0.4804 0.9407,-0.2802 1.8014,-0.5805 z m -12.8301,-11.369 q 0.4804,-0.02 1.2209,-0.06 0.7606,-0.04 1.6013,-0.1401 0.8407,-0.1001 1.6813,-0.2802 0.8407,-0.1802 1.5212,-0.4604 0.6806,-0.2802 1.1009,-0.7006 0.4203,-0.4203 0.4203,-1.0208 0,-1.0208 -0.8206,-1.6212 -0.8006,-0.6205 -2.2418,-0.6205 -0.6605,0 -1.4211,0.2001 -0.7606,0.1802 -1.4211,0.7206 -0.6605,0.5404 -1.1209,1.5012 -0.4604,0.9607 -0.5204,2.4819 z" id="path2565"></path>
    <path d="m -1245.5065,1720.0938 q -1.281,0 -2.4619,-0.3603 -1.161,-0.3603 -2.0617,-1.1009 -0.9007,-0.7406 -1.4411,-1.8615 -0.5204,-1.1409 -0.5204,-2.6821 0,-1.4811 0.4804,-2.562 0.4803,-1.1009 1.281,-1.8815 0.8206,-0.7806 1.9015,-1.281 1.1008,-0.5204 2.3218,-0.8006 1.221,-0.3003 2.502,-0.4004 1.301,-0.12 2.522,-0.12 0.8406,0 1.6213,0.04 0.7806,0.04 1.4611,0.1001 -0.04,-1.261 -0.4804,-2.0817 -0.4403,-0.8406 -1.1609,-1.321 -0.7205,-0.5004 -1.6813,-0.7006 -0.9608,-0.2001 -2.0216,-0.2001 -0.9808,0 -2.0216,0.1401 -1.0208,0.1201 -2.0016,0.3202 -0.9808,0.1802 -1.8815,0.4003 -0.8807,0.2202 -1.5612,0.4004 v -5.6045 q 0.9808,-0.2201 2.1017,-0.4203 1.1409,-0.2202 2.3618,-0.3803 1.221,-0.1601 2.482,-0.2602 1.281,-0.1001 2.522,-0.1001 1.5412,0 3.0224,0.2002 1.5012,0.1801 2.8222,0.6205 1.3411,0.4403 2.4619,1.1809 1.1409,0.7406 1.9416,1.8415 0.8206,1.0808 1.281,2.562 0.4604,1.4811 0.4604,3.4227 v 12.3097 h -8.2466 v -3.5828 q -0.4803,0.9807 -1.341,1.7614 -0.8607,0.7606 -1.9416,1.301 -1.0808,0.5404 -2.3018,0.8206 -1.2209,0.2803 -2.4219,0.2803 z m 3.3827,-4.7038 q 0.5604,0 1.281,-0.3002 0.7406,-0.3202 1.3811,-0.9607 0.6605,-0.6406 1.1009,-1.6213 0.4603,-0.9808 0.4603,-2.3419 h -0.6605 q -0.9608,0 -1.9816,0.2002 -1.0008,0.2001 -1.8414,0.6005 -0.8407,0.4003 -1.3811,0.9807 -0.5404,0.5805 -0.5404,1.3411 0,0.6005 0.2001,1.0008 0.2002,0.4003 0.5004,0.6605 0.3203,0.2402 0.7006,0.3403 0.4003,0.1 0.7806,0.1 z" id="path2567"></path>
    <path d="m -1216.2834,1708.7448 q 0,1.4612 0.3403,2.542 0.3602,1.0809 1.0008,1.8014 0.6405,0.7006 1.5412,1.0609 0.9007,0.3402 2.0216,0.3402 1.4411,0 2.7221,-0.3803 1.281,-0.4003 2.6221,-1.0808 l 1.281,5.2041 q -0.8807,0.4604 -1.9015,0.8206 -1.0208,0.3403 -2.1017,0.5605 -1.0808,0.2402 -2.2017,0.3603 -1.1009,0.1201 -2.1617,0.1201 -2.4219,0 -4.5636,-0.6806 -2.1417,-0.6805 -3.763,-2.0816 -1.6013,-1.4011 -2.542,-3.5428 -0.9407,-2.1417 -0.9407,-5.064 0,-2.9223 0.9407,-5.064 0.9407,-2.1417 2.542,-3.5428 1.6213,-1.4011 3.763,-2.0817 2.1417,-0.6805 4.5636,-0.6805 1.0608,0 2.1617,0.1201 1.1209,0.1201 2.2017,0.3603 1.0809,0.2202 2.1017,0.5804 1.0208,0.3403 1.9015,0.8007 l -1.281,5.2041 q -1.3411,-0.6806 -2.6221,-1.0609 -1.281,-0.4003 -2.7221,-0.4003 -1.1209,0 -2.0216,0.3603 -0.9007,0.3403 -1.5412,1.0609 -0.6406,0.7205 -1.0008,1.8214 -0.3403,1.0808 -0.3403,2.542 z" id="path2569"></path>
    <path d="m -1199.1499,1688.769 h 8.6469 v 12.1096 q 0.5604,-0.7806 1.4411,-1.4211 0.8807,-0.6405 1.9415,-1.1009 1.0609,-0.4804 2.2418,-0.7206 1.1809,-0.2602 2.3619,-0.2602 1.4611,0 2.7421,0.4804 1.3011,0.4604 2.2618,1.5012 0.9608,1.0408 1.5012,2.6821 0.5605,1.6213 0.5605,3.9231 v 13.5507 h -8.6469 v -11.409 q 0,-1.5012 -0.2602,-2.502 -0.2402,-1.0008 -0.6405,-1.6012 -0.4003,-0.6205 -0.9207,-0.8607 -0.5004,-0.2602 -1.0208,-0.2602 -0.6005,0 -1.201,0.2402 -0.5804,0.2201 -1.0808,0.6405 -0.4804,0.4203 -0.8207,1.0008 -0.3402,0.5804 -0.4603,1.281 v 13.4706 h -8.6469 z" id="path2571"></path>
    <path d="m -1158.4777,1720.0938 q -2.3619,0 -4.2034,-0.4404 -1.8414,-0.4403 -3.2225,-1.2209 -1.3811,-0.7807 -2.3619,-1.8415 -0.9607,-1.0809 -1.5612,-2.3419 -0.6005,-1.2609 -0.8807,-2.6621 -0.2602,-1.4011 -0.2602,-2.8422 0,-1.4211 0.2602,-2.8022 0.2802,-1.4011 0.8807,-2.6621 0.6005,-1.281 1.5612,-2.3419 0.9608,-1.0808 2.3419,-1.8614 1.4011,-0.8007 3.2425,-1.241 1.8415,-0.4604 4.2034,-0.4604 2.3618,0 4.2033,0.4604 1.8414,0.4403 3.2225,1.241 1.4011,0.7806 2.3619,1.8614 0.9608,1.0609 1.5612,2.3419 0.6005,1.261 0.8607,2.6621 0.2802,1.3811 0.2802,2.8022 0,1.4411 -0.2802,2.8422 -0.2602,1.4012 -0.8607,2.6621 -0.6004,1.261 -1.5812,2.3419 -0.9608,1.0608 -2.3419,1.8415 -1.3811,0.7806 -3.2225,1.2209 -1.8415,0.4404 -4.2033,0.4404 z m -3.8431,-11.349 q 0,1.0809 0.2002,2.1217 0.2001,1.0208 0.6405,1.8414 0.4604,0.8007 1.1809,1.3011 0.7406,0.4803 1.8215,0.4803 1.0808,0 1.8014,-0.4803 0.7406,-0.5004 1.1809,-1.3011 0.4604,-0.8206 0.6605,-1.8414 0.2002,-1.0408 0.2002,-2.1217 0,-1.0809 -0.2002,-2.1017 -0.2001,-1.0408 -0.6605,-1.8414 -0.4403,-0.8207 -1.1809,-1.3211 -0.7206,-0.5004 -1.8014,-0.5004 -1.0809,0 -1.8215,0.5004 -0.7205,0.5004 -1.1809,1.3211 -0.4404,0.8006 -0.6405,1.8414 -0.2002,1.0208 -0.2002,2.1017 z" id="path2573"></path>
    <path d="m -1117.1451,1719.5133 h -8.6268 l 0.1802,-1.3811 q 0.08,-0.6405 0.1401,-1.4411 0.06,-0.8007 0.1,-1.6613 -0.6004,1.1809 -1.5212,2.1216 -0.9007,0.9208 -2.0015,1.5813 -1.1009,0.6605 -2.3419,1.0008 -1.241,0.3603 -2.502,0.3603 -1.5612,0 -2.9623,-0.5204 -1.4011,-0.5004 -2.482,-1.6013 -1.0608,-1.1209 -1.7013,-2.8623 -0.6205,-1.7614 -0.6205,-4.2433 v -12.9503 h 8.6468 v 12.1496 q 0,1.241 0.2202,2.0817 0.2402,0.8407 0.6405,1.3611 0.4003,0.5204 0.9207,0.7606 0.5204,0.2201 1.1009,0.2201 0.6805,0 1.3611,-0.2802 0.7005,-0.2802 1.261,-0.7606 0.5804,-0.4804 0.9808,-1.1209 0.4203,-0.6605 0.5604,-1.4011 v -13.0103 h 8.6468 z" id="path2575"></path>
    <path d="m -1100.1717,1720.0938 q -1.8614,0 -3.5628,-0.4604 -1.7013,-0.4403 -3.0024,-1.5012 -1.281,-1.0808 -2.0616,-2.8422 -0.7606,-1.7814 -0.7606,-4.4235 v -7.9863 h -3.9831 v -1.3011 l 9.4274,-10.2481 h 3.2025 v 6.5852 h 6.4051 q -0.2402,1.201 -0.4403,2.422 -0.1802,1.2209 -0.2002,2.542 h -5.7646 v 7.9062 q 0,0.7206 0.1001,1.4011 0.1201,0.6605 0.4604,1.181 0.3403,0.5003 0.9808,0.8206 0.6405,0.3002 1.7013,0.3002 0.6805,0 1.5012,-0.1201 0.8206,-0.1401 1.8615,-0.5004 l 0.4803,5.1841 q -1.261,0.4604 -2.9023,0.7406 -1.6212,0.3003 -3.4427,0.3003 z" id="path2577"></path>
  </g>
</svg>
